<svg width="78" height="78" viewBox="0 0 78 78" fill="none" xmlns="http://www.w3.org/2000/svg">
<path fill-rule="evenodd" clip-rule="evenodd" d="M39.0001 68.64C57.9545 68.64 73.3201 53.2744 73.3201 34.32C73.3201 15.3656 57.9545 0 39.0001 0C20.0456 0 4.68005 15.3656 4.68005 34.32C4.68005 44.9926 9.55162 54.5274 17.1924 60.822C17.2046 60.832 17.1937 60.8515 17.1788 60.8464V60.8464C17.1696 60.8433 17.1601 60.8501 17.1601 60.8598V71.5042C17.1601 74.4834 20.3003 76.4171 22.9606 75.076L34.972 69.0212C35.6355 68.6867 36.3787 68.5494 37.1206 68.5894C37.7428 68.623 38.3695 68.64 39.0001 68.64Z" fill="#005E38"/>
<path fill-rule="evenodd" clip-rule="evenodd" d="M50.3011 24.3464C51.3602 25.1585 51.5623 26.6745 50.753 27.7357L38.7426 43.4829C38.3191 44.0382 37.6773 44.3832 36.9816 44.4295C36.286 44.4758 35.6042 44.2189 35.1113 43.7246L27.4883 36.0815C26.5455 35.1363 26.5455 33.6064 27.4883 32.6612V32.6612C28.4345 31.7124 29.9713 31.7124 30.9176 32.6612L36.5783 38.3368L46.9031 24.7994C47.7154 23.7344 49.2381 23.5314 50.3011 24.3464V24.3464Z" fill="white"/>
</svg>
